<svg id="Layer_1" data-name="Layer 1" xmlns="http://www.w3.org/2000/svg" xmlns:xlink="http://www.w3.org/1999/xlink" viewBox="0 0 1000 1000"><defs><style>.cls-1,.cls-18,.cls-4{fill:none;}.cls-2{fill:#00427e;}.cls-3{fill:#9ddcf9;opacity:0.4;}.cls-12,.cls-13,.cls-15,.cls-16,.cls-18,.cls-4{stroke:#000;}.cls-11,.cls-12,.cls-13,.cls-14,.cls-15,.cls-16,.cls-18,.cls-4{stroke-miterlimit:10;}.cls-11,.cls-13,.cls-14,.cls-15,.cls-16,.cls-4{stroke-width:3px;}.cls-5{fill:#fff;}.cls-6{font-size:25px;}.cls-10,.cls-17,.cls-6,.cls-7,.cls-8,.cls-9{font-family:ComicSansMS, Comic Sans MS;}.cls-7{font-size:59.475px;}.cls-8{font-size:33.352px;}.cls-9{font-size:50.31px;}.cls-10{font-size:45.049px;}.cls-11{fill:#f15a24;stroke:blue;}.cls-13{fill:lime;}.cls-14{fill:url(#Blue_Sky);stroke:url(#Jive);}.cls-15{fill:blue;}.cls-16{fill:#f0f;}.cls-17{font-size:106.463px;}.cls-18{stroke-width:5px;}</style><linearGradient id="Blue_Sky" x1="52.683" y1="709.345" x2="211.331" y2="709.345" gradientUnits="userSpaceOnUse"><stop offset="0" stop-color="#3ddeed"/><stop offset="1" stop-color="#3ddeed" stop-opacity="0"/></linearGradient><pattern id="Jive" data-name="Jive" width="108.339" height="109.642" patternUnits="userSpaceOnUse" viewBox="0 0 108.339 109.642"><rect class="cls-1" width="108.339" height="109.642"/><path class="cls-2" d="M87.474,144.336a.253.253,0,0,1,.246-.207c12.906-.135,24.754-3.268,33.971-11.515-8.03,5.558-22.942,7.511-31.527,3.618a.254.254,0,0,1,.112-.484c10.68.289,19.28-3.007,25.985-8.965-6.869-.422-12.575-4.74-12.557-9.845a.254.254,0,0,1,.485-.1c1.121,2.489,4.747,3.78,8.582,2.88,4.18-.981,7-4.19,6.3-7.165-.471-2.015-2.436-3.4-4.952-3.787a.253.253,0,0,1,.014-.5,17.338,17.338,0,0,1,3.317,0c6.49.617,11.514,4.595,11.949,9.177,4.713-.546,8.884-3.156,10.378-6.773a.255.255,0,0,1,.489.076c.377,4.752-1.258,7.839-4.97,10.855a21.8,21.8,0,0,1,17.255.538.253.253,0,0,1-.1.482,16.253,16.253,0,0,0-11.73,5.072c18.254-5.133,33.086,6.2,27.953,23.053a.253.253,0,0,1-.268.178.25.25,0,0,1-.226-.229c-.918-9.713-7.7-16.115-17.862-17.076a17.462,17.462,0,0,1,11.557,15.534.254.254,0,0,1-.484.122,16.75,16.75,0,0,0-14.161-9.812c6.334,2.58,10.4,8.6,11.571,16.42a.254.254,0,0,1-.477.154c-3.865-7.583-12.156-12.794-22.446-8.812-10.617,4.109-15.275,16.386-16.3,25.041a.254.254,0,0,1-.238.222.252.252,0,0,1-.261-.2c-3.72-15.687,3.583-31.949,16.637-38.84-7.1,2-13.44,6.26-17.027,13.355-8.294,1.018-14,3.862-16.858,9.239a.254.254,0,0,1-.477-.141c.182-2.109.941-6.33,4.074-8.27-6.965.011-12.506-.894-17.8-3.013A.255.255,0,0,1,87.474,144.336Zm29.486,53.471a.254.254,0,0,0-.361.338c1.62,2.8.14,6.814-3.051,6.814-5.721,0-8.471-10.77-7.6-20.594,2.163,5.756,4.033,8.055,7.348,10.795a.254.254,0,0,0,.386-.314,46.548,46.548,0,0,1-5.9-24.086c1.463,5.959,3.2,9.322,8.127,14.381a.254.254,0,0,0,.412-.284,44.253,44.253,0,0,1-.947-34.263.254.254,0,0,0-.348-.323c-5.2,2.551-8.263,4.227-12.752,10.389,1.358,7.4.229,11.049-3.172,17.195,3.938-9.918,1.842-23.894-8.187-29.591a.254.254,0,0,0-.309.4,17.9,17.9,0,0,1,4.157,17.928c1.529-10.389-7.6-19.115-17.78-19.115-9.6,0-16.15,7.509-15.609,14.941.537,7.365,5.443,10.969,9.672,12.5a.254.254,0,0,0,.266-.418C65.708,168.8,64.941,158,74.9,154.734c-5.859,5.057-3.689,16.83,5.69,17.725a.254.254,0,0,0,.161-.467,8.032,8.032,0,0,1-3.679-6.574c0-4.674,3.422-6.51,5.676-6.51,3.422,0,6.26,3.256,6.26,8.18,0,5.844-5.26,10.683-12.02,11.435-6.626.735-12.782-2.154-15.75-6.459a.253.253,0,0,0-.454.207,17.141,17.141,0,0,0,26.888,9.506c-6.613,7.5-17.006,7.606-25.722-.086a.254.254,0,0,0-.4.3c2.667,5.408,9.253,11.82,18.605,10.885,8.557-.856,13.522-9.014,14.524-15.692.556,8.522-1.394,14.538-8.754,20.147a.253.253,0,0,0,.224.445c6.786-1.961,12.231-5.425,15.049-12.545,0,6.162-2.138,12.373-7.525,16.512a.253.253,0,0,0,.223.445c3.454-.984,6.171-2.488,8.138-5.185,1.311,11.1,6.521,17.691,12.526,17.691,4.125,0,7.2-3.033,7.2-7.871A11.366,11.366,0,0,0,116.96,197.807Zm99.226-91.62c-3.162-3.9-9.538-5.392-16.431-3.988a22.7,22.7,0,0,0-1.611-11.484.255.255,0,0,0-.485.119c.375,8.767-4.623,15.844-13.449,18.91,6.906-4.756,8.926-14.193,5.639-19.066a.255.255,0,0,0-.307-.092.252.252,0,0,0-.154.279c.373,2.061-.606,4.685-2.713,6.727-2.906,2.814-6.85,3.453-8.811,1.429s-1.2-5.947,1.707-8.761a9.676,9.676,0,0,1,3.45-2.185.254.254,0,0,0-.063-.492c-6.389-.555-10.769,3.252-13.516,7.878-2.794,4.7-7.57,8.41-13.211,7.67a.254.254,0,0,0-.164.47,11.04,11.04,0,0,0,9.864,1.051c-5.8,4.91-14.047,7.743-21.84,5.228a.253.253,0,0,0-.266.411c5.908,6.564,17.69,6.7,25.11,1.373-3.037,4.316-7.069,7.484-14.293,8.479a.253.253,0,0,0-.055.488c8.291,3.078,16.6-.045,23.445-8.215a26.343,26.343,0,0,1-14.767,14.012.249.249,0,0,0-.162.279.253.253,0,0,0,.244.213c3.943.081,7.486-.858,12.265-3.57-3.507,5.689-2.74,15.638,2.369,22.257a.254.254,0,0,0,.452-.195c-1.18-7.2,1.3-15.33,5.609-19.642a18.175,18.175,0,0,0,5.9,19.644.252.252,0,0,0,.255.044.255.255,0,0,0,.162-.2c1.235-9.418,11.77-18.975,20.6-19.775a.253.253,0,0,0,.033-.5A20.818,20.818,0,0,0,198.6,126.01a21.78,21.78,0,0,1,9.554-6.246.254.254,0,0,0-.058-.495,20.416,20.416,0,0,0-12.731,3.538A31.446,31.446,0,0,1,214.8,109.3a.257.257,0,0,0,.2-.263.254.254,0,0,0-.226-.237c-11.918-1.3-21.746,3.318-28.221,11.918,1.648-4.9,6.365-9.756,12.945-12.619,5.846-2.545,11.85-2.947,16.422-1.51a.255.255,0,0,0,.273-.4Zm-52.9,75.573c4.807-10.487,4.465-18.686.594-29.055a.254.254,0,0,0-.492.1c.621,12.621-2.826,21.654-10.3,27.806,8.25-9.851,4.354-29.559-8.822-29.559-9.585,0-17.516,7.975-19.455,17.524a.254.254,0,0,0,.466.182c2.843-4.762,7.41-7.852,12.458-7.852,8.134,0,10.541,6.467,10.541,11,0,6.188-4.926,11.344-8.707,11.344a4.94,4.94,0,0,1-5.041-4.928,8.876,8.876,0,0,1,6.376-8.164.254.254,0,0,0,.18-.279.258.258,0,0,0-.25-.219,10.474,10.474,0,0,0-9.63,5.569,17.4,17.4,0,0,1,.641-7.723.257.257,0,0,0-.126-.3.254.254,0,0,0-.317.068c-7.356,9.393-3.835,25.625,1.98,32.358-5.532-3.983-10.417-12.633-10.34-24.393a.254.254,0,0,0-.489-.095c-4.109,10.251-1.929,29.248,9.281,39.851a20.122,20.122,0,0,1-9.125-.693.254.254,0,0,0-.24.437c4.092,3.455,9.814,4.541,15.266,4.541-4.7-5.5-3.136-16.554,4.355-16.554,5.348,0,7.775,8.3,3.646,12.781a.255.255,0,0,0,.272.412c4.779-1.654,9.945-5.789,9.945-11.016,0-5.043-4.812-9.394-11.8-9.05,8.819-2.506,18.051.267,22.881,6.251a.253.253,0,0,0,.311.069.257.257,0,0,0,.133-.291c-2.791-10.717-11.967-15.2-23.44-13.707,9.282-3.756,23.25-.481,29.424,7.31a.253.253,0,0,0,.447-.209C172.534,188.662,169.042,183.715,163.282,181.76Z"/><path class="cls-3" d="M189.665,162.473a.251.251,0,0,1-.246.207c-12.906.136-24.754,3.267-33.971,11.515,8.03-5.558,22.942-7.509,31.528-3.619a.255.255,0,0,1-.114.486c-10.679-.291-19.279,3.006-25.984,8.963,6.869.424,12.574,4.741,12.557,9.846a.254.254,0,0,1-.485.1c-1.121-2.489-4.748-3.782-8.582-2.881-4.179.982-7,4.189-6.3,7.166.471,2.013,2.436,3.4,4.952,3.787a.253.253,0,0,1,.216.258.256.256,0,0,1-.23.246,17.5,17.5,0,0,1-3.316,0c-6.491-.617-11.514-4.594-11.95-9.178-4.713.547-8.884,3.158-10.378,6.774a.254.254,0,0,1-.488-.077c-.377-4.75,1.258-7.837,4.97-10.853a21.823,21.823,0,0,1-17.256-.537.26.26,0,0,1-.143-.281.255.255,0,0,1,.241-.2,16.252,16.252,0,0,0,11.733-5.072c-18.257,5.135-33.089-6.2-27.956-23.051a.252.252,0,0,1,.268-.179.249.249,0,0,1,.226.228c.918,9.715,7.7,16.117,17.861,17.076a17.454,17.454,0,0,1-11.556-15.533.253.253,0,0,1,.484-.121,16.754,16.754,0,0,0,14.16,9.813c-6.334-2.582-10.4-8.6-11.57-16.422a.253.253,0,0,1,.476-.153c3.866,7.582,12.157,12.793,22.448,8.811,10.617-4.109,15.273-16.385,16.3-25.039a.258.258,0,0,1,.239-.225.255.255,0,0,1,.261.2c3.719,15.689-3.583,31.949-16.636,38.839,7.1-2,13.439-6.259,17.027-13.353,8.293-1.018,14-3.863,16.858-9.24a.253.253,0,0,1,.295-.125.256.256,0,0,1,.181.265c-.181,2.11-.941,6.33-4.074,8.272,6.965-.012,12.506.892,17.8,3.013A.252.252,0,0,1,189.665,162.473ZM160.179,109a.255.255,0,0,0,.361-.34c-1.619-2.8-.141-6.812,3.051-6.812,5.72,0,8.47,10.769,7.595,20.591-2.162-5.754-4.033-8.054-7.347-10.8a.254.254,0,0,0-.385.317,46.543,46.543,0,0,1,5.9,24.084c-1.463-5.957-3.2-9.32-8.127-14.381a.252.252,0,0,0-.325-.031.256.256,0,0,0-.088.314,44.247,44.247,0,0,1,.948,34.264.254.254,0,0,0,.347.324c5.205-2.551,8.264-4.227,12.752-10.391-1.357-7.4-.228-11.046,3.172-17.193-3.937,9.916-1.841,23.893,8.188,29.59a.254.254,0,0,0,.308-.4,17.9,17.9,0,0,1-4.156-17.925c-1.529,10.388,7.6,19.113,17.779,19.113,9.6,0,16.151-7.508,15.61-14.94-.537-7.365-5.443-10.97-9.672-12.5a.253.253,0,0,0-.266.416c5.61,5.694,6.377,16.493-3.584,19.76,5.86-5.056,3.69-16.828-5.689-17.724a.255.255,0,0,0-.264.171.249.249,0,0,0,.1.3,8.04,8.04,0,0,1,3.678,6.575c0,4.673-3.422,6.511-5.676,6.511-3.422,0-6.26-3.256-6.26-8.181,0-5.842,5.26-10.684,12.019-11.434,6.627-.736,12.784,2.154,15.75,6.459a.255.255,0,0,0,.456-.207,17.144,17.144,0,0,0-26.889-9.508c6.613-7.5,17.006-7.605,25.723.086a.253.253,0,0,0,.394-.3c-2.666-5.406-9.252-11.818-18.6-10.884-8.557.855-13.522,9.015-14.524,15.691-.556-8.521,1.395-14.535,8.754-20.144a.254.254,0,0,0-.225-.446c-6.785,1.959-12.23,5.424-15.048,12.543,0-6.16,2.138-12.371,7.525-16.51a.253.253,0,0,0-.223-.445c-3.453.983-6.171,2.488-8.138,5.184-1.311-11.1-6.522-17.69-12.526-17.69-4.125,0-7.205,3.033-7.205,7.869A11.372,11.372,0,0,0,160.179,109ZM60.952,200.621c3.162,3.9,9.539,5.393,16.432,3.988A22.714,22.714,0,0,0,79,216.1a.256.256,0,0,0,.485-.121c-.375-8.766,4.623-15.842,13.449-18.909C86.023,201.822,84,211.26,87.29,216.131a.254.254,0,0,0,.461-.188c-.373-2.06.6-4.683,2.713-6.724,2.906-2.815,6.85-3.453,8.81-1.43s1.2,5.947-1.707,8.76a9.65,9.65,0,0,1-3.449,2.185.254.254,0,0,0-.166.272.251.251,0,0,0,.229.221c6.388.554,10.769-3.252,13.515-7.877,2.8-4.7,7.571-8.413,13.211-7.672a.258.258,0,0,0,.274-.168.254.254,0,0,0-.11-.3,11.044,11.044,0,0,0-9.863-1.053c5.8-4.908,14.047-7.74,21.841-5.226a.254.254,0,0,0,.266-.412c-5.91-6.565-17.691-6.7-25.111-1.372,3.037-4.316,7.069-7.486,14.293-8.478a.258.258,0,0,0,.219-.225.255.255,0,0,0-.164-.265c-8.291-3.076-16.6.045-23.446,8.217a26.342,26.342,0,0,1,14.768-14.014.253.253,0,0,0-.082-.49c-3.943-.082-7.486.857-12.266,3.57,3.508-5.691,2.741-15.639-2.369-22.26a.254.254,0,0,0-.451.2c1.18,7.2-1.3,15.329-5.609,19.641A18.173,18.173,0,0,0,87.2,161.4a.255.255,0,0,0-.418.159c-1.234,9.418-11.769,18.974-20.6,19.775a.253.253,0,0,0-.033.5A20.842,20.842,0,0,0,78.536,180.8a21.808,21.808,0,0,1-9.555,6.244.254.254,0,0,0,.059.5A20.423,20.423,0,0,0,81.771,184,31.457,31.457,0,0,1,62.343,197.51a.253.253,0,0,0,.029.5c11.918,1.3,21.746-3.319,28.221-11.918-1.649,4.9-6.365,9.756-12.945,12.619-5.846,2.545-11.85,2.947-16.422,1.51a.254.254,0,0,0-.274.4Zm52.9-75.572c-4.806,10.486-4.464,18.685-.593,29.055a.254.254,0,0,0,.492-.1c-.621-12.623,2.826-21.654,10.3-27.809-8.25,9.854-4.354,29.561,8.823,29.561,9.585,0,17.515-7.977,19.454-17.526a.254.254,0,0,0-.467-.179c-2.841,4.761-7.408,7.851-12.457,7.851-8.134,0-10.541-6.466-10.541-11,0-6.185,4.927-11.341,8.708-11.341a4.937,4.937,0,0,1,5.04,4.925,8.875,8.875,0,0,1-6.374,8.164.255.255,0,0,0-.179.28.251.251,0,0,0,.25.218,10.467,10.467,0,0,0,9.628-5.568,17.423,17.423,0,0,1-.641,7.725.256.256,0,0,0,.125.3.253.253,0,0,0,.316-.071c7.358-9.392,3.836-25.623-1.978-32.357,5.531,3.982,10.416,12.635,10.34,24.394a.253.253,0,0,0,.488.1c4.109-10.254,1.93-29.248-9.281-39.852a20.107,20.107,0,0,1,9.125.692.254.254,0,0,0,.24-.436c-4.092-3.455-9.815-4.541-15.266-4.541,4.7,5.5,3.137,16.553-4.352,16.553-5.351,0-7.779-8.3-3.65-12.781a.254.254,0,0,0-.271-.412c-4.779,1.656-9.945,5.789-9.945,11.017,0,5.041,4.812,9.395,11.8,9.051-8.821,2.5-18.053-.268-22.884-6.254a.251.251,0,0,0-.31-.066.255.255,0,0,0-.133.291c2.791,10.715,11.967,15.2,23.441,13.7-9.283,3.758-23.251.482-29.425-7.309a.253.253,0,0,0-.307-.072.256.256,0,0,0-.141.281C104.605,118.148,108.1,123.094,113.856,125.049Z"/><path class="cls-2" d="M-20.865,144.336a.253.253,0,0,1,.246-.207c12.906-.135,24.754-3.268,33.972-11.515-8.031,5.558-22.943,7.511-31.528,3.618a.251.251,0,0,1-.141-.288.25.25,0,0,1,.254-.2c10.679.289,19.279-3.007,25.984-8.965-6.869-.422-12.574-4.74-12.557-9.845a.254.254,0,0,1,.2-.247.254.254,0,0,1,.284.144c1.121,2.489,4.748,3.78,8.583,2.88,4.179-.981,7-4.19,6.3-7.165-.471-2.015-2.436-3.4-4.952-3.787a.253.253,0,0,1,.014-.5,17.338,17.338,0,0,1,3.317,0c6.491.617,11.514,4.595,11.949,9.177,4.713-.546,8.885-3.156,10.38-6.773a.254.254,0,0,1,.488.076c.377,4.752-1.258,7.839-4.971,10.855a21.806,21.806,0,0,1,17.256.538.253.253,0,0,1-.1.482,16.253,16.253,0,0,0-11.73,5.072c18.254-5.133,33.086,6.2,27.953,23.053a.253.253,0,0,1-.494-.051c-.918-9.713-7.7-16.115-17.862-17.076A17.462,17.462,0,0,1,53.54,149.149a.254.254,0,0,1-.484.122,16.75,16.75,0,0,0-14.16-9.812c6.334,2.58,10.4,8.6,11.57,16.42a.254.254,0,0,1-.477.154c-3.865-7.583-12.156-12.794-22.447-8.812-10.617,4.109-15.274,16.386-16.3,25.041a.254.254,0,0,1-.5.027C7.02,156.6,14.322,140.34,27.376,133.449c-7.1,2-13.44,6.26-17.027,13.355-8.294,1.018-14,3.862-16.858,9.239a.252.252,0,0,1-.3.125.254.254,0,0,1-.181-.266c.182-2.109.941-6.33,4.074-8.27-6.965.011-12.506-.894-17.8-3.013A.255.255,0,0,1-20.865,144.336ZM8.621,197.807a.254.254,0,0,0-.361.338c1.62,2.8.14,6.814-3.051,6.814-5.721,0-8.471-10.77-7.6-20.594,2.163,5.756,4.033,8.055,7.348,10.795a.254.254,0,0,0,.386-.314,46.548,46.548,0,0,1-5.9-24.086c1.463,5.959,3.2,9.322,8.127,14.381a.254.254,0,0,0,.412-.284,44.257,44.257,0,0,1-.947-34.263.256.256,0,0,0-.062-.282.259.259,0,0,0-.286-.041c-5.2,2.551-8.263,4.227-12.752,10.389,1.358,7.4.229,11.049-3.171,17.195,3.937-9.918,1.841-23.894-8.188-29.591a.252.252,0,0,0-.324.064.253.253,0,0,0,.016.332,17.906,17.906,0,0,1,4.156,17.928c1.529-10.389-7.6-19.115-17.78-19.115-9.6,0-16.15,7.509-15.609,14.941.537,7.365,5.443,10.969,9.672,12.5a.256.256,0,0,0,.3-.1.259.259,0,0,0-.033-.317C-42.631,168.8-43.4,158-33.438,154.734c-5.859,5.057-3.689,16.83,5.69,17.725a.253.253,0,0,0,.265-.17.255.255,0,0,0-.1-.3,8.032,8.032,0,0,1-3.679-6.574c0-4.674,3.422-6.51,5.676-6.51,3.422,0,6.26,3.256,6.26,8.18,0,5.844-5.26,10.683-12.02,11.435-6.626.735-12.782-2.154-15.75-6.459a.252.252,0,0,0-.313-.087.254.254,0,0,0-.141.294,17.141,17.141,0,0,0,26.888,9.506c-6.613,7.5-17.006,7.606-25.722-.086a.252.252,0,0,0-.322-.009.25.25,0,0,0-.073.312c2.667,5.408,9.253,11.82,18.605,10.885,8.557-.856,13.522-9.014,14.524-15.692.556,8.522-1.394,14.538-8.754,20.147a.254.254,0,0,0-.072.316.254.254,0,0,0,.3.129c6.786-1.961,12.231-5.425,15.049-12.545,0,6.162-2.138,12.373-7.525,16.512a.251.251,0,0,0-.072.315.252.252,0,0,0,.3.13c3.453-.984,6.17-2.488,8.137-5.185C-4.988,208.105.223,214.7,6.227,214.7c4.125,0,7.205-3.033,7.205-7.871A11.366,11.366,0,0,0,8.621,197.807Zm99.228-91.62c-3.163-3.9-9.539-5.392-16.432-3.988a22.7,22.7,0,0,0-1.611-11.484.255.255,0,0,0-.485.119c.375,8.767-4.623,15.844-13.449,18.91,6.906-4.756,8.926-14.193,5.639-19.066a.255.255,0,0,0-.307-.092.252.252,0,0,0-.154.279c.373,2.061-.606,4.685-2.713,6.727-2.906,2.814-6.85,3.453-8.811,1.429s-1.2-5.947,1.707-8.761a9.676,9.676,0,0,1,3.45-2.185.254.254,0,0,0-.063-.492c-6.389-.555-10.769,3.252-13.515,7.878-2.795,4.7-7.571,8.41-13.211,7.67a.254.254,0,0,0-.164.47,11.037,11.037,0,0,0,9.863,1.051c-5.8,4.91-14.047,7.743-21.84,5.228a.253.253,0,0,0-.266.411c5.909,6.564,17.69,6.7,25.11,1.373-3.037,4.316-7.069,7.484-14.293,8.479a.253.253,0,0,0-.055.488c8.291,3.078,16.6-.045,23.445-8.215a26.343,26.343,0,0,1-14.767,14.012.249.249,0,0,0-.162.279.253.253,0,0,0,.244.213c3.943.081,7.486-.858,12.265-3.57-3.507,5.689-2.74,15.638,2.37,22.257a.253.253,0,0,0,.451-.195c-1.18-7.2,1.3-15.33,5.609-19.642a18.175,18.175,0,0,0,5.9,19.644.252.252,0,0,0,.255.044.258.258,0,0,0,.163-.2c1.234-9.418,11.769-18.975,20.6-19.775a.253.253,0,0,0,.033-.5,20.818,20.818,0,0,0-12.388,1.031,21.78,21.78,0,0,1,9.554-6.246.254.254,0,0,0-.058-.495,20.416,20.416,0,0,0-12.731,3.538A31.446,31.446,0,0,1,106.458,109.3a.257.257,0,0,0,.2-.263.253.253,0,0,0-.226-.237c-11.918-1.3-21.746,3.318-28.221,11.918,1.648-4.9,6.365-9.756,12.945-12.619,5.846-2.545,11.85-2.947,16.422-1.51a.255.255,0,0,0,.274-.4Zm-52.9,75.573c4.807-10.487,4.465-18.686.594-29.055a.254.254,0,0,0-.492.1c.621,12.621-2.826,21.654-10.3,27.806,8.25-9.851,4.354-29.559-8.822-29.559-9.586,0-17.517,7.975-19.456,17.524a.255.255,0,0,0,.467.182c2.842-4.762,7.409-7.852,12.458-7.852,8.134,0,10.541,6.467,10.541,11,0,6.188-4.926,11.344-8.707,11.344a4.94,4.94,0,0,1-5.042-4.928,8.876,8.876,0,0,1,6.378-8.164.254.254,0,0,0,.179-.279.257.257,0,0,0-.25-.219,10.474,10.474,0,0,0-9.631,5.569,17.4,17.4,0,0,1,.641-7.723.257.257,0,0,0-.126-.3.253.253,0,0,0-.316.068c-7.357,9.393-3.836,25.625,1.979,32.358C19.508,195.65,14.623,187,14.7,175.24a.254.254,0,0,0-.489-.095C10.1,185.4,12.282,204.393,23.492,215a20.122,20.122,0,0,1-9.125-.693.254.254,0,0,0-.24.437c4.092,3.455,9.814,4.541,15.267,4.541-4.7-5.5-3.137-16.554,4.355-16.554,5.348,0,7.775,8.3,3.647,12.781a.254.254,0,0,0,.271.412c4.779-1.654,9.945-5.789,9.945-11.016,0-5.043-4.812-9.394-11.8-9.05,8.819-2.506,18.051.267,22.881,6.251a.254.254,0,0,0,.311.069.257.257,0,0,0,.133-.291c-2.791-10.717-11.967-15.2-23.44-13.707,9.282-3.756,23.25-.481,29.424,7.31a.253.253,0,0,0,.447-.209C64.2,188.662,60.7,183.715,54.944,181.76Z"/><path class="cls-3" d="M81.327,162.473a.251.251,0,0,1-.246.207c-12.906.136-24.754,3.267-33.971,11.515,8.03-5.558,22.942-7.509,31.528-3.619a.255.255,0,0,1-.114.486c-10.679-.291-19.279,3.006-25.984,8.963,6.869.424,12.574,4.741,12.557,9.846a.254.254,0,0,1-.485.1c-1.121-2.489-4.748-3.782-8.582-2.881-4.179.982-7,4.189-6.3,7.166.47,2.013,2.435,3.4,4.951,3.787a.254.254,0,0,1-.014.5,17.5,17.5,0,0,1-3.316,0c-6.491-.617-11.514-4.594-11.95-9.178-4.712.547-8.884,3.158-10.378,6.774a.255.255,0,0,1-.489-.077c-.377-4.75,1.258-7.837,4.971-10.853a21.825,21.825,0,0,1-17.257-.537.259.259,0,0,1-.142-.281.254.254,0,0,1,.24-.2,16.252,16.252,0,0,0,11.733-5.072C9.822,184.254-5.01,172.918.123,156.068a.252.252,0,0,1,.268-.179.249.249,0,0,1,.226.228c.918,9.715,7.7,16.117,17.862,17.076A17.455,17.455,0,0,1,6.922,157.66a.253.253,0,0,1,.484-.121,16.754,16.754,0,0,0,14.16,9.813c-6.334-2.582-10.4-8.6-11.57-16.422a.254.254,0,0,1,.477-.153c3.865,7.582,12.156,12.793,22.448,8.811,10.617-4.109,15.273-16.385,16.3-25.039a.254.254,0,0,1,.5-.029c3.718,15.689-3.584,31.949-16.637,38.839,7.1-2,13.439-6.259,17.027-13.353,8.293-1.018,14-3.863,16.858-9.24a.253.253,0,0,1,.3-.125.256.256,0,0,1,.181.265c-.181,2.11-.941,6.33-4.074,8.272,6.965-.012,12.506.892,17.8,3.013A.252.252,0,0,1,81.327,162.473ZM51.841,109a.255.255,0,0,0,.361-.34c-1.619-2.8-.141-6.812,3.051-6.812,5.721,0,8.471,10.769,7.6,20.591-2.163-5.754-4.033-8.054-7.348-10.8a.254.254,0,0,0-.385.317,46.543,46.543,0,0,1,5.9,24.084c-1.463-5.957-3.2-9.32-8.127-14.381a.254.254,0,0,0-.412.283,44.246,44.246,0,0,1,.947,34.264.255.255,0,0,0,.348.324c5.2-2.551,8.263-4.227,12.752-10.391-1.358-7.4-.229-11.046,3.171-17.193-3.937,9.916-1.841,23.893,8.188,29.59a.251.251,0,0,0,.324-.065.254.254,0,0,0-.015-.332,17.9,17.9,0,0,1-4.157-17.925c-1.529,10.388,7.6,19.113,17.779,19.113,9.6,0,16.151-7.508,15.61-14.94-.537-7.365-5.443-10.97-9.672-12.5a.253.253,0,0,0-.266.416c5.61,5.694,6.377,16.493-3.584,19.76,5.86-5.056,3.69-16.828-5.689-17.724a.255.255,0,0,0-.264.171.249.249,0,0,0,.1.3,8.04,8.04,0,0,1,3.678,6.575c0,4.673-3.422,6.511-5.676,6.511-3.422,0-6.26-3.256-6.26-8.181,0-5.842,5.26-10.684,12.019-11.434,6.628-.736,12.784,2.154,15.75,6.459a.255.255,0,0,0,.456-.207,17.144,17.144,0,0,0-26.889-9.508c6.613-7.5,17.006-7.605,25.723.086a.253.253,0,0,0,.394-.3C104.579,119.408,97.993,113,88.64,113.93c-8.557.855-13.522,9.015-14.524,15.691-.556-8.521,1.395-14.535,8.754-20.144a.254.254,0,0,0,.072-.317.251.251,0,0,0-.3-.129c-6.786,1.959-12.231,5.424-15.049,12.543,0-6.16,2.138-12.371,7.525-16.51a.253.253,0,0,0-.223-.445c-3.453.983-6.171,2.488-8.138,5.184-1.311-11.1-6.522-17.69-12.526-17.69-4.125,0-7.2,3.033-7.2,7.869A11.375,11.375,0,0,0,51.841,109Zm-99.228,91.617c3.162,3.9,9.539,5.393,16.432,3.988A22.714,22.714,0,0,0-29.344,216.1a.256.256,0,0,0,.291.136.255.255,0,0,0,.194-.257c-.375-8.766,4.623-15.842,13.449-18.909-6.906,4.756-8.926,14.194-5.639,19.065a.256.256,0,0,0,.307.094.254.254,0,0,0,.154-.282c-.373-2.06.606-4.683,2.713-6.724,2.906-2.815,6.85-3.453,8.811-1.43s1.2,5.947-1.707,8.76a9.662,9.662,0,0,1-3.45,2.185.255.255,0,0,0-.166.272.251.251,0,0,0,.229.221c6.389.554,10.769-3.252,13.515-7.877,2.8-4.7,7.571-8.413,13.211-7.672a.257.257,0,0,0,.274-.168.254.254,0,0,0-.11-.3,11.043,11.043,0,0,0-9.863-1.053c5.8-4.908,14.047-7.74,21.841-5.226a.255.255,0,0,0,.291-.1.252.252,0,0,0-.025-.308c-5.91-6.565-17.691-6.7-25.111-1.372,3.037-4.316,7.069-7.486,14.293-8.478a.254.254,0,0,0,.055-.49c-8.291-3.076-16.6.045-23.445,8.217A26.337,26.337,0,0,1,5.535,180.381a.253.253,0,0,0-.082-.49c-3.943-.082-7.486.857-12.265,3.57,3.507-5.691,2.74-15.639-2.37-22.26a.255.255,0,0,0-.3-.078.256.256,0,0,0-.149.275c1.18,7.2-1.3,15.329-5.609,19.641a18.173,18.173,0,0,0-5.9-19.643.252.252,0,0,0-.255-.044.256.256,0,0,0-.163.2c-1.234,9.418-11.769,18.974-20.6,19.775a.254.254,0,0,0-.231.236.253.253,0,0,0,.2.264A20.842,20.842,0,0,0-29.8,180.8a21.811,21.811,0,0,1-9.554,6.244.252.252,0,0,0-.176.271.254.254,0,0,0,.234.225A20.423,20.423,0,0,0-26.568,184,31.457,31.457,0,0,1-46,197.51a.254.254,0,0,0-.2.261.254.254,0,0,0,.226.237c11.918,1.3,21.746-3.319,28.221-11.918-1.648,4.9-6.365,9.756-12.945,12.619-5.846,2.545-11.85,2.947-16.422,1.51a.255.255,0,0,0-.285.1A.255.255,0,0,0-47.387,200.621ZM5.518,125.049C.711,135.535,1.053,143.734,4.924,154.1a.254.254,0,0,0,.492-.1C4.8,141.381,8.242,132.35,15.715,126.2c-8.25,9.854-4.354,29.561,8.823,29.561,9.586,0,17.516-7.977,19.455-17.526a.254.254,0,0,0-.467-.179c-2.841,4.761-7.408,7.851-12.457,7.851-8.135,0-10.542-6.466-10.542-11,0-6.185,4.927-11.341,8.708-11.341a4.937,4.937,0,0,1,5.041,4.925A8.874,8.874,0,0,1,27.9,136.65a.255.255,0,0,0-.179.28.251.251,0,0,0,.25.218A10.467,10.467,0,0,0,37.6,131.58a17.423,17.423,0,0,1-.641,7.725.256.256,0,0,0,.125.3.253.253,0,0,0,.316-.071c7.358-9.392,3.836-25.623-1.978-32.357,5.531,3.982,10.416,12.635,10.34,24.394a.253.253,0,0,0,.488.1c4.109-10.254,1.93-29.248-9.281-39.852a20.106,20.106,0,0,1,9.125.692.254.254,0,0,0,.24-.436c-4.092-3.455-9.814-4.541-15.266-4.541,4.7,5.5,3.137,16.553-4.353,16.553-5.351,0-7.778-8.3-3.65-12.781a.254.254,0,0,0-.271-.412c-4.779,1.656-9.945,5.789-9.945,11.017,0,5.041,4.812,9.395,11.8,9.051-8.821,2.5-18.053-.268-22.883-6.254a.255.255,0,0,0-.444.225c2.791,10.715,11.967,15.2,23.441,13.7-9.283,3.758-23.251.482-29.425-7.309a.252.252,0,0,0-.307-.072.254.254,0,0,0-.14.281C-3.734,118.148-.242,123.094,5.518,125.049Z"/><path class="cls-2" d="M87.474,34.694a.253.253,0,0,1,.246-.207c12.906-.134,24.754-3.267,33.971-11.514-8.03,5.557-22.942,7.51-31.527,3.618a.254.254,0,0,1,.112-.485c10.68.29,19.28-3.006,25.985-8.964C109.392,16.72,103.686,12.4,103.7,7.3a.254.254,0,0,1,.485-.1c1.121,2.49,4.747,3.781,8.582,2.88,4.18-.98,7-4.189,6.3-7.165-.471-2.014-2.436-3.4-4.952-3.787a.254.254,0,0,1-.217-.258.254.254,0,0,1,.231-.245,17.5,17.5,0,0,1,3.317,0c6.49.617,11.514,4.6,11.949,9.178,4.713-.547,8.884-3.156,10.378-6.774a.255.255,0,0,1,.489.077c.377,4.752-1.258,7.838-4.97,10.854a21.808,21.808,0,0,1,17.255.538.253.253,0,0,1-.1.483,16.246,16.246,0,0,0-11.73,5.072c18.254-5.134,33.086,6.2,27.953,23.053a.252.252,0,0,1-.268.177.248.248,0,0,1-.226-.228c-.918-9.714-7.7-16.115-17.862-17.076a17.46,17.46,0,0,1,11.557,15.534.254.254,0,0,1-.484.122,16.751,16.751,0,0,0-14.161-9.813c6.334,2.58,10.4,8.6,11.571,16.42a.254.254,0,0,1-.477.155c-3.865-7.583-12.156-12.794-22.446-8.813-10.617,4.109-15.275,16.387-16.3,25.041a.256.256,0,0,1-.238.223.251.251,0,0,1-.261-.2c-3.72-15.687,3.583-31.949,16.637-38.839-7.1,2-13.44,6.259-17.027,13.354-8.294,1.019-14,3.862-16.858,9.239a.25.25,0,0,1-.3.125.253.253,0,0,1-.181-.265c.182-2.11.941-6.33,4.074-8.271-6.965.011-12.506-.893-17.8-3.012A.257.257,0,0,1,87.474,34.694ZM116.96,88.165a.254.254,0,0,0-.361.338c1.62,2.8.14,6.814-3.051,6.814-5.721,0-8.471-10.769-7.6-20.593,2.163,5.755,4.033,8.054,7.348,10.8a.254.254,0,0,0,.386-.315,46.546,46.546,0,0,1-5.9-24.086c1.463,5.959,3.2,9.322,8.127,14.381a.253.253,0,0,0,.412-.283,44.255,44.255,0,0,1-.947-34.264.254.254,0,0,0-.348-.322c-5.2,2.551-8.263,4.226-12.752,10.389,1.358,7.4.229,11.048-3.172,17.2,3.938-9.918,1.842-23.895-8.187-29.592a.255.255,0,0,0-.309.4,17.9,17.9,0,0,1,4.157,17.927c1.529-10.388-7.6-19.115-17.78-19.115-9.6,0-16.15,7.51-15.609,14.941.537,7.366,5.443,10.969,9.672,12.5a.254.254,0,0,0,.266-.418c-5.61-5.692-6.377-16.493,3.583-19.76-5.859,5.056-3.689,16.83,5.69,17.724a.253.253,0,0,0,.161-.466,8.035,8.035,0,0,1-3.679-6.575c0-4.673,3.422-6.509,5.676-6.509,3.422,0,6.26,3.255,6.26,8.179,0,5.844-5.26,10.684-12.02,11.436-6.626.734-12.782-2.154-15.75-6.459a.252.252,0,0,0-.313-.088.256.256,0,0,0-.141.3,17.142,17.142,0,0,0,26.888,9.506c-6.613,7.5-17.006,7.605-25.722-.086a.254.254,0,0,0-.4.3c2.667,5.408,9.253,11.82,18.605,10.884,8.557-.855,13.522-9.013,14.524-15.691.556,8.521-1.394,14.537-8.754,20.146a.254.254,0,0,0,.224.446c6.786-1.961,12.231-5.426,15.049-12.545,0,6.162-2.138,12.373-7.525,16.511a.254.254,0,0,0,.223.446c3.454-.985,6.171-2.488,8.138-5.186,1.311,11.1,6.521,17.692,12.526,17.692,4.125,0,7.2-3.034,7.2-7.871A11.368,11.368,0,0,0,116.96,88.165ZM216.186-3.454c-3.162-3.9-9.538-5.393-16.431-3.988a22.706,22.706,0,0,0-1.611-11.485.256.256,0,0,0-.291-.138.255.255,0,0,0-.194.257C198.034-10.041,193.036-2.964,184.21.1c6.906-4.756,8.926-14.194,5.639-19.067a.258.258,0,0,0-.307-.092.253.253,0,0,0-.154.28c.373,2.06-.606,4.684-2.713,6.726-2.906,2.815-6.85,3.453-8.811,1.43s-1.2-5.947,1.707-8.762a9.687,9.687,0,0,1,3.45-2.184.252.252,0,0,0,.165-.272.248.248,0,0,0-.228-.22c-6.389-.555-10.769,3.251-13.516,7.877-2.794,4.706-7.57,8.411-13.211,7.67a.257.257,0,0,0-.273.168.255.255,0,0,0,.109.3,11.037,11.037,0,0,0,9.864,1.052c-5.8,4.909-14.047,7.742-21.84,5.227a.253.253,0,0,0-.266.411c5.908,6.565,17.69,6.7,25.11,1.373-3.037,4.317-7.069,7.485-14.293,8.479a.253.253,0,0,0-.055.488c8.291,3.078,16.6-.045,23.445-8.215a26.34,26.34,0,0,1-14.767,14.012.249.249,0,0,0-.162.279.253.253,0,0,0,.244.213c3.943.081,7.486-.857,12.265-3.57-3.507,5.689-2.74,15.639,2.369,22.258a.254.254,0,0,0,.452-.2c-1.18-7.2,1.3-15.331,5.609-19.643a18.174,18.174,0,0,0,5.9,19.644.25.25,0,0,0,.255.044.255.255,0,0,0,.162-.2c1.235-9.418,11.77-18.974,20.6-19.775a.253.253,0,0,0,.033-.5A20.826,20.826,0,0,0,198.6,16.368a21.8,21.8,0,0,1,9.554-6.246.254.254,0,0,0-.058-.495,20.423,20.423,0,0,0-12.731,3.538A31.446,31.446,0,0,1,214.8-.341a.255.255,0,0,0,.2-.262.255.255,0,0,0-.226-.238c-11.918-1.3-21.746,3.319-28.221,11.918,1.648-4.9,6.365-9.756,12.945-12.619,5.846-2.545,11.85-2.946,16.422-1.51a.251.251,0,0,0,.285-.1A.254.254,0,0,0,216.186-3.454Zm-52.9,75.572c4.807-10.486,4.465-18.685.594-29.055a.254.254,0,0,0-.492.1c.621,12.621-2.826,21.654-10.3,27.807,8.25-9.852,4.354-29.56-8.822-29.56-9.585,0-17.516,7.976-19.455,17.525a.254.254,0,0,0,.466.181c2.843-4.762,7.41-7.851,12.458-7.851,8.134,0,10.541,6.466,10.541,11,0,6.187-4.926,11.343-8.707,11.343a4.939,4.939,0,0,1-5.041-4.927,8.875,8.875,0,0,1,6.376-8.164.254.254,0,0,0-.07-.5,10.471,10.471,0,0,0-9.63,5.568,17.4,17.4,0,0,1,.641-7.723.254.254,0,0,0-.443-.23c-7.356,9.392-3.835,25.625,1.98,32.357-5.532-3.982-10.417-12.633-10.34-24.392a.254.254,0,0,0-.489-.1c-4.109,10.252-1.929,29.248,9.281,39.851a20.122,20.122,0,0,1-9.125-.693.255.255,0,0,0-.24.438c4.092,3.455,9.814,4.541,15.266,4.541-4.7-5.5-3.136-16.555,4.355-16.555,5.348,0,7.775,8.3,3.646,12.781a.255.255,0,0,0,.272.412c4.779-1.654,9.945-5.789,9.945-11.015,0-5.043-4.812-9.4-11.8-9.051,8.819-2.506,18.051.267,22.881,6.252a.253.253,0,0,0,.311.068.257.257,0,0,0,.133-.291c-2.791-10.717-11.967-15.2-23.44-13.707,9.282-3.756,23.25-.48,29.424,7.311a.254.254,0,0,0,.447-.209C172.534,79.021,169.042,74.073,163.282,72.118Z"/><path class="cls-3" d="M189.665,52.831a.251.251,0,0,1-.246.207c-12.906.137-24.754,3.268-33.971,11.516,8.03-5.559,22.942-7.51,31.528-3.619a.255.255,0,0,1-.114.486c-10.679-.291-19.279,3.006-25.984,8.963,6.869.424,12.574,4.74,12.557,9.845a.253.253,0,0,1-.485.1c-1.121-2.488-4.748-3.781-8.582-2.881-4.179.983-7,4.19-6.3,7.166.471,2.014,2.436,3.4,4.952,3.787a.254.254,0,0,1-.014.5,17.331,17.331,0,0,1-3.316,0c-6.491-.617-11.514-4.593-11.95-9.177-4.713.546-8.884,3.158-10.378,6.773a.254.254,0,0,1-.488-.076c-.377-4.75,1.258-7.838,4.97-10.854a21.819,21.819,0,0,1-17.256-.537.26.26,0,0,1-.143-.281.255.255,0,0,1,.241-.2,16.26,16.26,0,0,0,11.733-5.072c-18.257,5.134-33.089-6.2-27.956-23.051a.253.253,0,0,1,.494.049c.918,9.714,7.7,16.117,17.861,17.076a17.456,17.456,0,0,1-11.556-15.533.253.253,0,0,1,.484-.122,16.752,16.752,0,0,0,14.16,9.813c-6.334-2.582-10.4-8.6-11.57-16.422a.253.253,0,0,1,.476-.152c3.866,7.582,12.157,12.793,22.448,8.81,10.617-4.109,15.273-16.384,16.3-25.039a.254.254,0,0,1,.5-.029c3.719,15.689-3.583,31.949-16.636,38.84,7.1-2,13.439-6.26,17.027-13.354,8.293-1.017,14-3.863,16.858-9.24a.253.253,0,0,1,.476.141c-.181,2.109-.941,6.33-4.074,8.271,6.965-.012,12.506.893,17.8,3.014A.251.251,0,0,1,189.665,52.831ZM160.179-.638a.255.255,0,0,0,.316-.027.253.253,0,0,0,.045-.312c-1.619-2.8-.141-6.813,3.051-6.813,5.72,0,8.47,10.769,7.595,20.592-2.162-5.754-4.033-8.055-7.347-10.795a.254.254,0,0,0-.385.316,46.545,46.545,0,0,1,5.9,24.084c-1.463-5.957-3.2-9.32-8.127-14.381A.253.253,0,0,0,160.9,12a.257.257,0,0,0-.088.315,44.244,44.244,0,0,1,.948,34.263.254.254,0,0,0,.347.324c5.205-2.55,8.264-4.226,12.752-10.39-1.357-7.4-.228-11.047,3.172-17.194-3.937,9.916-1.841,23.893,8.188,29.59a.254.254,0,0,0,.308-.4,17.9,17.9,0,0,1-4.156-17.926c-1.529,10.389,7.6,19.113,17.779,19.113,9.6,0,16.151-7.507,15.61-14.939-.537-7.365-5.443-10.971-9.672-12.5a.253.253,0,0,0-.266.416c5.61,5.693,6.377,16.492-3.584,19.76,5.86-5.057,3.69-16.829-5.689-17.725a.255.255,0,0,0-.264.172.25.25,0,0,0,.1.3,8.037,8.037,0,0,1,3.678,6.574c0,4.674-3.422,6.512-5.676,6.512-3.422,0-6.26-3.256-6.26-8.182,0-5.842,5.26-10.683,12.019-11.433,6.627-.737,12.784,2.154,15.75,6.458a.255.255,0,0,0,.456-.207,17.144,17.144,0,0,0-26.889-9.507c6.613-7.5,17.006-7.606,25.723.086a.253.253,0,0,0,.394-.3c-2.666-5.406-9.252-11.819-18.6-10.885-8.557.856-13.522,9.016-14.524,15.691-.556-8.521,1.395-14.535,8.754-20.144a.253.253,0,0,0,.072-.316.25.25,0,0,0-.3-.129c-6.785,1.959-12.23,5.423-15.048,12.543,0-6.161,2.138-12.371,7.525-16.51a.253.253,0,0,0,.072-.316.251.251,0,0,0-.3-.129c-3.453.982-6.171,2.488-8.138,5.183-1.311-11.1-6.522-17.689-12.526-17.689-4.125,0-7.205,3.033-7.205,7.869A11.369,11.369,0,0,0,160.179-.638ZM60.952,90.979c3.162,3.905,9.539,5.393,16.432,3.989A22.708,22.708,0,0,0,79,106.454a.255.255,0,0,0,.485-.121c-.375-8.766,4.623-15.842,13.449-18.908C86.023,92.181,84,101.618,87.29,106.489a.254.254,0,0,0,.461-.187c-.373-2.061.6-4.684,2.713-6.725,2.906-2.814,6.85-3.453,8.81-1.43s1.2,5.948-1.707,8.76a9.654,9.654,0,0,1-3.449,2.186.254.254,0,0,0,.063.492c6.388.555,10.769-3.252,13.515-7.877,2.8-4.7,7.571-8.412,13.211-7.672a.253.253,0,0,0,.164-.469,11.047,11.047,0,0,0-9.863-1.052c5.8-4.909,14.047-7.741,21.841-5.227a.254.254,0,0,0,.266-.412c-5.91-6.564-17.691-6.7-25.111-1.371,3.037-4.317,7.069-7.486,14.293-8.479a.254.254,0,0,0,.055-.49c-8.291-3.076-16.6.045-23.446,8.217a26.345,26.345,0,0,1,14.768-14.014.253.253,0,0,0-.082-.49c-3.943-.082-7.486.857-12.266,3.57,3.508-5.691,2.741-15.638-2.369-22.259a.253.253,0,0,0-.451.2c1.18,7.2-1.3,15.328-5.609,19.64a18.171,18.171,0,0,0-5.9-19.642.255.255,0,0,0-.418.158c-1.234,9.418-11.769,18.975-20.6,19.775a.255.255,0,0,0-.231.237.251.251,0,0,0,.2.263,20.834,20.834,0,0,0,12.388-1.029A21.791,21.791,0,0,1,68.981,77.4a.254.254,0,0,0,.059.5A20.417,20.417,0,0,0,81.771,74.36,31.457,31.457,0,0,1,62.343,87.868a.256.256,0,0,0-.2.262.253.253,0,0,0,.226.236c11.918,1.3,21.746-3.318,28.221-11.918-1.649,4.9-6.365,9.756-12.945,12.619-5.846,2.545-11.85,2.948-16.422,1.51a.255.255,0,0,0-.274.4Zm52.9-75.572c-4.806,10.487-4.464,18.686-.593,29.055a.254.254,0,0,0,.492-.1c-.621-12.623,2.826-21.654,10.3-27.808-8.25,9.853-4.354,29.56,8.823,29.56,9.585,0,17.515-7.976,19.454-17.525a.254.254,0,0,0-.467-.18c-2.841,4.762-7.408,7.852-12.457,7.852-8.134,0-10.541-6.467-10.541-11,0-6.186,4.927-11.342,8.708-11.342a4.937,4.937,0,0,1,5.04,4.926,8.876,8.876,0,0,1-6.374,8.164.254.254,0,0,0,.071.5,10.469,10.469,0,0,0,9.628-5.569,17.423,17.423,0,0,1-.641,7.725.256.256,0,0,0,.125.3.253.253,0,0,0,.316-.07c7.358-9.393,3.836-25.623-1.978-32.358,5.531,3.983,10.416,12.635,10.34,24.4a.253.253,0,0,0,.488.1c4.109-10.253,1.93-29.248-9.281-39.851a20.106,20.106,0,0,1,9.125.691.252.252,0,0,0,.3-.119.251.251,0,0,0-.058-.316c-4.092-3.455-9.815-4.541-15.266-4.541,4.7,5.5,3.137,16.553-4.352,16.553-5.351,0-7.779-8.3-3.65-12.782a.256.256,0,0,0,.026-.31.257.257,0,0,0-.3-.1c-4.779,1.656-9.945,5.789-9.945,11.018,0,5.041,4.812,9.394,11.8,9.05-8.821,2.5-18.053-.267-22.884-6.253A.253.253,0,0,0,109.8-5a.255.255,0,0,0-.133.291C112.456,6,121.632,10.485,133.106,8.991c-9.283,3.758-23.251.483-29.425-7.308a.254.254,0,0,0-.448.209C104.605,8.507,108.1,13.452,113.856,15.407Z"/><path class="cls-2" d="M-20.865,34.694a.253.253,0,0,1,.246-.207c12.906-.134,24.754-3.267,33.972-11.514C5.322,28.53-9.59,30.483-18.175,26.591a.252.252,0,0,1-.141-.288.252.252,0,0,1,.254-.2C-7.383,26.4,1.217,23.1,7.922,17.142,1.053,16.72-4.652,12.4-4.635,7.3a.253.253,0,0,1,.2-.247.252.252,0,0,1,.284.143c1.121,2.49,4.748,3.781,8.583,2.88,4.179-.98,7-4.189,6.3-7.165C10.262.894,8.3-.495,5.781-.879a.253.253,0,0,1-.216-.258.253.253,0,0,1,.23-.245,17.5,17.5,0,0,1,3.317,0C15.6-.763,20.626,3.216,21.061,7.8c4.713-.547,8.885-3.156,10.38-6.774a.254.254,0,0,1,.488.077c.377,4.752-1.258,7.838-4.971,10.854a21.81,21.81,0,0,1,17.256.538.253.253,0,0,1-.1.483,16.246,16.246,0,0,0-11.73,5.072c18.254-5.134,33.086,6.2,27.953,23.053a.252.252,0,0,1-.268.177.249.249,0,0,1-.226-.228c-.918-9.714-7.7-16.115-17.862-17.076A17.46,17.46,0,0,1,53.54,39.508a.254.254,0,0,1-.484.122A16.751,16.751,0,0,0,38.9,29.817c6.334,2.58,10.4,8.6,11.57,16.42a.254.254,0,0,1-.477.155C46.124,38.809,37.833,33.6,27.542,37.579c-10.617,4.109-15.274,16.387-16.3,25.041a.255.255,0,0,1-.238.223.252.252,0,0,1-.261-.2C7.02,46.96,14.322,30.7,27.376,23.808c-7.1,2-13.44,6.259-17.027,13.354-8.294,1.019-14,3.862-16.858,9.239a.25.25,0,0,1-.3.125.253.253,0,0,1-.181-.265c.182-2.11.941-6.33,4.074-8.271-6.965.011-12.506-.893-17.8-3.012A.257.257,0,0,1-20.865,34.694ZM8.621,88.165a.254.254,0,0,0-.361.338c1.62,2.8.14,6.814-3.051,6.814-5.721,0-8.471-10.769-7.6-20.593,2.163,5.755,4.033,8.054,7.348,10.8a.254.254,0,0,0,.386-.315,46.546,46.546,0,0,1-5.9-24.086C.912,67.077,2.645,70.44,7.576,75.5a.253.253,0,0,0,.412-.283,44.259,44.259,0,0,1-.947-34.264.254.254,0,0,0-.062-.281.257.257,0,0,0-.286-.041c-5.2,2.551-8.263,4.226-12.752,10.389,1.358,7.4.229,11.048-3.171,17.2,3.937-9.918,1.841-23.895-8.188-29.592a.253.253,0,0,0-.324.065.253.253,0,0,0,.016.332A17.9,17.9,0,0,1-13.57,56.946c1.529-10.388-7.6-19.115-17.78-19.115-9.6,0-16.15,7.51-15.609,14.941.537,7.366,5.443,10.969,9.672,12.5a.256.256,0,0,0,.3-.1.258.258,0,0,0-.033-.316c-5.611-5.692-6.378-16.493,3.582-19.76-5.859,5.056-3.689,16.83,5.69,17.724a.252.252,0,0,0,.265-.17.253.253,0,0,0-.1-.3,8.035,8.035,0,0,1-3.679-6.575c0-4.673,3.422-6.509,5.676-6.509,3.422,0,6.26,3.255,6.26,8.179,0,5.844-5.26,10.684-12.02,11.436-6.626.734-12.782-2.154-15.75-6.459a.252.252,0,0,0-.313-.088.256.256,0,0,0-.141.3,17.142,17.142,0,0,0,26.888,9.506c-6.613,7.5-17.006,7.605-25.722-.086a.253.253,0,0,0-.322-.01.251.251,0,0,0-.073.313c2.667,5.408,9.253,11.82,18.605,10.884,8.557-.855,13.522-9.013,14.524-15.691.556,8.521-1.394,14.537-8.754,20.146a.255.255,0,0,0-.072.317.255.255,0,0,0,.3.129C-15.4,86.177-9.953,82.712-7.135,75.593c0,6.162-2.138,12.373-7.525,16.511a.251.251,0,0,0-.072.315.253.253,0,0,0,.3.131c3.453-.985,6.17-2.488,8.137-5.186,1.311,11.1,6.522,17.692,12.526,17.692,4.125,0,7.205-3.034,7.205-7.871A11.368,11.368,0,0,0,8.621,88.165ZM107.849-3.454c-3.163-3.9-9.539-5.393-16.432-3.988a22.706,22.706,0,0,0-1.611-11.485.256.256,0,0,0-.291-.138.256.256,0,0,0-.194.257C89.7-10.041,84.7-2.964,75.872.1c6.906-4.756,8.926-14.194,5.639-19.067a.257.257,0,0,0-.307-.092.253.253,0,0,0-.154.28c.373,2.06-.606,4.684-2.713,6.726-2.906,2.815-6.85,3.453-8.811,1.43s-1.2-5.947,1.707-8.762a9.687,9.687,0,0,1,3.45-2.184.254.254,0,0,0,.166-.272.25.25,0,0,0-.229-.22c-6.389-.555-10.769,3.251-13.515,7.877C58.31-9.475,53.534-5.77,47.894-6.511a.257.257,0,0,0-.274.168.254.254,0,0,0,.11.3,11.034,11.034,0,0,0,9.863,1.052C51.8-.08,43.546,2.753,35.753.238a.253.253,0,0,0-.266.411c5.909,6.565,17.69,6.7,25.11,1.373C57.56,6.339,53.528,9.507,46.3,10.5a.253.253,0,0,0-.055.488c8.291,3.078,16.6-.045,23.445-8.215A26.34,26.34,0,0,1,54.927,16.786a.249.249,0,0,0-.162.279.253.253,0,0,0,.244.213c3.943.081,7.486-.857,12.265-3.57-3.507,5.689-2.74,15.639,2.37,22.258a.253.253,0,0,0,.451-.2c-1.18-7.2,1.3-15.331,5.609-19.643a18.174,18.174,0,0,0,5.9,19.644.25.25,0,0,0,.255.044.258.258,0,0,0,.163-.2c1.234-9.418,11.769-18.974,20.6-19.775a.253.253,0,0,0,.033-.5,20.826,20.826,0,0,0-12.388,1.031,21.8,21.8,0,0,1,9.554-6.246.254.254,0,0,0-.058-.495A20.423,20.423,0,0,0,87.03,13.165,31.446,31.446,0,0,1,106.458-.341a.255.255,0,0,0,.2-.262.255.255,0,0,0-.226-.238c-11.918-1.3-21.746,3.319-28.221,11.918,1.648-4.9,6.365-9.756,12.945-12.619C97-4.087,103-4.488,107.575-3.052a.251.251,0,0,0,.285-.1A.255.255,0,0,0,107.849-3.454Zm-52.9,75.572c4.807-10.486,4.465-18.685.594-29.055a.254.254,0,0,0-.492.1c.621,12.621-2.826,21.654-10.3,27.807C53,61.12,49.1,41.412,35.925,41.412c-9.586,0-17.517,7.976-19.456,17.525a.254.254,0,0,0,.467.181c2.842-4.762,7.409-7.851,12.458-7.851,8.134,0,10.541,6.466,10.541,11,0,6.187-4.926,11.343-8.707,11.343a4.94,4.94,0,0,1-5.042-4.927,8.875,8.875,0,0,1,6.378-8.164.254.254,0,0,0-.071-.5,10.472,10.472,0,0,0-9.631,5.568,17.4,17.4,0,0,1,.641-7.723.257.257,0,0,0-.126-.3.253.253,0,0,0-.316.069C15.7,67.026,19.225,83.259,25.04,89.991,19.508,86.009,14.623,77.358,14.7,65.6a.254.254,0,0,0-.489-.1c-4.108,10.252-1.929,29.248,9.281,39.851a20.122,20.122,0,0,1-9.125-.693.255.255,0,0,0-.24.438c4.092,3.455,9.814,4.541,15.267,4.541-4.7-5.5-3.137-16.555,4.355-16.555,5.348,0,7.775,8.3,3.647,12.781a.254.254,0,0,0,.271.412c4.779-1.654,9.945-5.789,9.945-11.015,0-5.043-4.812-9.4-11.8-9.051,8.819-2.506,18.051.267,22.881,6.252a.253.253,0,0,0,.311.068.257.257,0,0,0,.133-.291c-2.791-10.717-11.967-15.2-23.44-13.707,9.282-3.756,23.25-.48,29.424,7.311a.254.254,0,0,0,.447-.209C64.2,79.021,60.7,74.073,54.944,72.118Z"/><path class="cls-3" d="M81.327,52.831a.251.251,0,0,1-.246.207c-12.906.137-24.754,3.268-33.971,11.516,8.03-5.559,22.942-7.51,31.528-3.619a.255.255,0,0,1-.114.486c-10.679-.291-19.279,3.006-25.984,8.963,6.869.424,12.574,4.74,12.557,9.845a.253.253,0,0,1-.485.1c-1.121-2.488-4.748-3.781-8.582-2.881-4.179.983-7,4.19-6.3,7.166.47,2.014,2.435,3.4,4.951,3.787a.254.254,0,0,1-.014.5,17.331,17.331,0,0,1-3.316,0c-6.491-.617-11.514-4.593-11.95-9.177-4.712.546-8.884,3.158-10.378,6.773a.255.255,0,0,1-.489-.076c-.377-4.75,1.258-7.838,4.971-10.854a21.821,21.821,0,0,1-17.257-.537.259.259,0,0,1-.142-.281.254.254,0,0,1,.24-.2,16.26,16.26,0,0,0,11.733-5.072C9.822,74.612-5.01,63.276.123,46.427a.253.253,0,0,1,.268-.18.25.25,0,0,1,.226.229c.918,9.714,7.7,16.117,17.862,17.076A17.457,17.457,0,0,1,6.922,48.019a.253.253,0,0,1,.484-.122,16.752,16.752,0,0,0,14.16,9.813c-6.334-2.582-10.4-8.6-11.57-16.422a.254.254,0,0,1,.477-.152c3.865,7.582,12.156,12.793,22.448,8.81,10.617-4.109,15.273-16.384,16.3-25.039a.254.254,0,0,1,.238-.224.257.257,0,0,1,.262.2c3.718,15.689-3.584,31.949-16.637,38.84,7.1-2,13.439-6.26,17.027-13.354,8.293-1.017,14-3.863,16.858-9.24a.253.253,0,0,1,.476.141c-.181,2.109-.941,6.33-4.074,8.271,6.965-.012,12.506.893,17.8,3.014A.251.251,0,0,1,81.327,52.831ZM51.841-.638a.255.255,0,0,0,.316-.027A.253.253,0,0,0,52.2-.977c-1.619-2.8-.141-6.813,3.051-6.813,5.721,0,8.471,10.769,7.6,20.592C60.686,7.048,58.816,4.747,55.5,2.007a.254.254,0,0,0-.385.316,46.545,46.545,0,0,1,5.9,24.084c-1.463-5.957-3.2-9.32-8.127-14.381a.254.254,0,0,0-.412.284,44.244,44.244,0,0,1,.947,34.263.255.255,0,0,0,.348.324c5.2-2.55,8.263-4.226,12.752-10.39-1.358-7.4-.229-11.047,3.171-17.194-3.937,9.916-1.841,23.893,8.188,29.59a.251.251,0,0,0,.324-.064.254.254,0,0,0-.015-.332,17.9,17.9,0,0,1-4.157-17.926C72.5,40.97,81.628,49.694,91.811,49.694c9.6,0,16.151-7.507,15.61-14.939-.537-7.365-5.443-10.971-9.672-12.5a.253.253,0,0,0-.266.416c5.61,5.693,6.377,16.492-3.584,19.76,5.86-5.057,3.69-16.829-5.689-17.725a.255.255,0,0,0-.264.172.25.25,0,0,0,.1.3,8.037,8.037,0,0,1,3.678,6.574c0,4.674-3.422,6.512-5.676,6.512-3.422,0-6.26-3.256-6.26-8.182,0-5.842,5.26-10.683,12.019-11.433,6.628-.737,12.784,2.154,15.75,6.458a.255.255,0,0,0,.456-.207A17.144,17.144,0,0,0,81.128,15.39c6.613-7.5,17.006-7.606,25.723.086a.253.253,0,0,0,.394-.3C104.579,9.767,97.993,3.354,88.64,4.288c-8.557.856-13.522,9.016-14.524,15.691C73.56,11.458,75.511,5.444,82.87-.165a.253.253,0,0,0,.072-.316.249.249,0,0,0-.3-.129C75.86,1.349,70.415,4.813,67.6,11.933c0-6.161,2.138-12.371,7.525-16.51a.253.253,0,0,0,.072-.316.251.251,0,0,0-.3-.129c-3.453.982-6.171,2.488-8.138,5.183-1.311-11.1-6.522-17.689-12.526-17.689-4.125,0-7.2,3.033-7.2,7.869A11.372,11.372,0,0,0,51.841-.638ZM-47.387,90.979c3.162,3.905,9.539,5.393,16.432,3.989a22.708,22.708,0,0,0,1.611,11.486.256.256,0,0,0,.291.137.256.256,0,0,0,.194-.258c-.375-8.766,4.623-15.842,13.449-18.908-6.906,4.756-8.926,14.193-5.639,19.064a.256.256,0,0,0,.307.094.253.253,0,0,0,.154-.281c-.373-2.061.606-4.684,2.713-6.725,2.906-2.814,6.85-3.453,8.811-1.43s1.2,5.948-1.707,8.76a9.666,9.666,0,0,1-3.45,2.186.254.254,0,0,0-.166.271.251.251,0,0,0,.229.221c6.389.555,10.769-3.252,13.515-7.877,2.8-4.7,7.571-8.412,13.211-7.672a.253.253,0,0,0,.164-.469,11.047,11.047,0,0,0-9.863-1.052c5.8-4.909,14.047-7.741,21.841-5.227a.256.256,0,0,0,.291-.1.253.253,0,0,0-.025-.309c-5.91-6.564-17.691-6.7-25.111-1.371,3.037-4.317,7.069-7.486,14.293-8.479a.254.254,0,0,0,.055-.49c-8.291-3.076-16.6.045-23.445,8.217A26.34,26.34,0,0,1,5.535,70.739a.253.253,0,0,0-.082-.49c-3.943-.082-7.486.857-12.265,3.57,3.507-5.691,2.74-15.638-2.37-22.259a.257.257,0,0,0-.3-.079.257.257,0,0,0-.149.276c1.18,7.2-1.3,15.328-5.609,19.64a18.171,18.171,0,0,0-5.9-19.642.253.253,0,0,0-.255-.045.256.256,0,0,0-.163.2c-1.234,9.418-11.769,18.975-20.6,19.775a.255.255,0,0,0-.231.237.252.252,0,0,0,.2.263A20.834,20.834,0,0,0-29.8,71.159,21.793,21.793,0,0,1-39.357,77.4a.253.253,0,0,0-.176.272.252.252,0,0,0,.234.224A20.417,20.417,0,0,0-26.568,74.36,31.457,31.457,0,0,1-46,87.868a.256.256,0,0,0-.2.262.253.253,0,0,0,.226.236c11.918,1.3,21.746-3.318,28.221-11.918-1.648,4.9-6.365,9.756-12.945,12.619-5.846,2.545-11.85,2.948-16.422,1.51a.254.254,0,0,0-.285.1A.253.253,0,0,0-47.387,90.979ZM5.518,15.407C.711,25.894,1.053,34.093,4.924,44.462a.254.254,0,0,0,.492-.1C4.8,31.739,8.242,22.708,15.715,16.554c-8.25,9.853-4.354,29.56,8.823,29.56,9.586,0,17.516-7.976,19.455-17.525a.254.254,0,0,0-.467-.18c-2.841,4.762-7.408,7.852-12.457,7.852-8.135,0-10.542-6.467-10.542-11,0-6.186,4.927-11.342,8.708-11.342a4.937,4.937,0,0,1,5.041,4.926A8.875,8.875,0,0,1,27.9,27.009a.254.254,0,0,0,.071.5A10.47,10.47,0,0,0,37.6,21.938a17.423,17.423,0,0,1-.641,7.725.256.256,0,0,0,.125.3.253.253,0,0,0,.316-.07C44.759,20.5,41.237,4.269,35.423-2.466c5.531,3.983,10.416,12.635,10.34,24.4a.253.253,0,0,0,.488.1c4.109-10.253,1.93-29.248-9.281-39.851a20.105,20.105,0,0,1,9.125.691.254.254,0,0,0,.3-.119.252.252,0,0,0-.059-.316c-4.092-3.455-9.814-4.541-15.266-4.541,4.7,5.5,3.137,16.553-4.353,16.553-5.351,0-7.778-8.3-3.65-12.782a.255.255,0,0,0,.026-.31.257.257,0,0,0-.3-.1C18.016-17.1,12.85-12.964,12.85-7.735c0,5.041,4.812,9.394,11.8,9.05C15.832,3.819,6.6,1.048,1.77-4.938A.254.254,0,0,0,1.459-5a.255.255,0,0,0-.133.291C4.117,6,13.293,10.485,24.767,8.991c-9.283,3.758-23.251.483-29.425-7.308a.254.254,0,0,0-.307-.073.255.255,0,0,0-.14.282C-3.734,8.507-.242,13.452,5.518,15.407Z"/></pattern></defs><title>too_many_americans_1-2_transparent</title><line class="cls-4" y1="1000" x2="1000"/><path d="M409.613,163.468c-61.046.716-121.73-2.858-182.674-2.815-36.52.02-100.531-.632-114.695-44.332C84.057,29.354,194.469,12.288,251.035,12.582c33.613.175,67.259-2.723,100.852-1.77,37.884,1.074,86.486,1.16,118.686,22.538,18.821,12.5,34.637,33.622,37.809,56.139a54.67,54.67,0,0,1-3.113,27.842C490.079,156.177,445.961,163.042,409.613,163.468Z"/><path d="M342.4,327.108c-47.847.053-100.914,10.07-127.893-45.26-17.309-35.5,3.133-86.609,39.075-94.223,51.454-10.9,254.776-12.355,302.545-5.77,39.145,5.394,96.26,13.206,91.323,71.35-4.869,57.177-53.936,67.894-97.9,72.15C481.342,331.953,411.015,327.037,342.4,327.108Z"/><path d="M6.666,453.787C11.39,416,33.758,377.924,72.836,373.016c16.133-2.025,33.914-2.737,50.524-4.408,38.951-3.912,313.475-13.91,360.1,18.164,33.627,23.133,46.075,63.357,25.259,100.544-23.966,42.8-100.712,48.915-142.308,48.9q-85.686-.045-171.378.077c-18.742,20.009-50.607,53.279-65.562,64.495l.947-64.365c-42.013.143-102.61-2.158-120.273-40.074C5.136,485.59,4.679,469.721,6.666,453.787Z"/><path class="cls-5" d="M495.081,91.681a47.253,47.253,0,0,1-2.894,24.9c-14.116,34.738-55.109,40.874-88.89,41.258-56.718.637-113.108-2.555-169.737-2.52-33.934.021-93.414-.564-106.574-39.642-26.189-77.769,76.4-93.03,128.965-92.768,31.234.156,62.493-2.434,93.713-1.583,35.2.96,80.36,1.037,110.283,20.153C477.435,52.655,492.132,71.544,495.081,91.681Z"/><path class="cls-5" d="M634.429,253.856c-4.553,48.367-50.475,57.431-91.621,61.032-63.833,5.582-129.657,1.421-193.874,1.484-44.778.045-94.442,8.518-119.692-38.289-16.2-30.031,2.927-73.262,36.563-79.7,48.158-9.225,238.451-10.45,283.16-4.882C585.6,198.062,639.051,204.671,634.429,253.856Z"/><path class="cls-5" d="M23.7,454.043c-1.873,14.036-1.442,28.018,3.278,37.5,19.6,39.353,95.334,35.156,132.426,35.2,67.69.079,135.384-.11,203.07-.079,39.17.016,111.444-5.374,134.01-43.075,19.6-32.76,7.882-68.194-23.783-88.571-43.911-28.257-302.432-19.451-339.11-16-15.641,1.471-32.386,2.1-47.578,3.884C49.212,387.214,28.148,420.754,23.7,454.043Z"/><polygon class="cls-5" points="253.015 141.53 283.511 266.916 316.762 260.209 281.163 110.095 253.015 141.53"/><polygon class="cls-5" points="431.547 291.873 396.495 419.866 360.96 424.704 398.897 271.478 431.547 291.873"/><path class="cls-5" d="M214.848,512.842s-54.862,56.219-75.5,70.7l1.212-77.268Z"/><path d="M312.077,210.883s-.585-.894-1.635-2.5a66.318,66.318,0,0,1-3.789-7.074,152.754,152.754,0,0,1-8.727-24.609c-2.556-9.806-4.157-18.9-3.943-25.53a30.22,30.22,0,0,1,.307-4.472,20.233,20.233,0,0,1,.593-3.363c.521-1.838.807-2.859.807-2.859s-.559.919-1.575,2.576a18.719,18.719,0,0,0-1.438,3.265,26.319,26.319,0,0,0-1.3,4.565c-1.579,6.906-1.225,16.808,1.472,27.114a76.386,76.386,0,0,0,11.535,24.6,45.272,45.272,0,0,0,5.415,6.287Z"/><path d="M445.357,290.9s-1.379,1.057-3.862,2.968c-.623.487-1.315,1.031-2.07,1.623l-2.236,2.161q-1.211,1.178-2.573,2.51c-.926.884-1.716,1.968-2.646,3.03q-1.351,1.632-2.834,3.417-1.312,1.894-2.731,3.943-.711,1.029-1.434,2.092c-.461.723-.875,1.488-1.318,2.246q-1.312,2.307-2.7,4.739a127.831,127.831,0,0,0-8.757,22.462,164.044,164.044,0,0,0-4.566,23.517,186.985,186.985,0,0,0-1.178,19.441c-.056,2.767,0,5.268.077,7.464.051,2.2.128,4.084.247,5.626.222,3.08.342,4.784.342,4.784l.477-4.769c.129-1.534.338-3.407.59-5.578.234-2.172.5-4.639.883-7.356.64-5.447,1.7-11.881,2.94-18.983,1.374-7.08,3.03-14.811,5.24-22.791a193.621,193.621,0,0,1,7.712-21.988q1.152-2.426,2.249-4.728c.367-.765.7-1.535,1.084-2.269q.6-1.079,1.19-2.121c.772-1.4,1.524-2.755,2.245-4.055q1.222-1.863,2.347-3.574c.777-1.123,1.412-2.277,2.189-3.234q1.146-1.46,2.159-2.746c.67-.865,1.3-1.673,1.874-2.415l1.762-1.871Z"/><path d="M242.159,139.405s.726.773,2.027,2.167c.645.7,1.473,1.5,2.364,2.486l2.825,3.509a45.7,45.7,0,0,1,3.09,4.4,39.075,39.075,0,0,1,3.017,5.276,82.781,82.781,0,0,1,5.168,12.882,120.4,120.4,0,0,1,4.382,25.117c.222,3.317.41,6.03.453,7.908.107,1.886.162,2.932.162,2.932s.235-1.024.657-2.866a78.634,78.634,0,0,0,1.349-7.92,66.411,66.411,0,0,0-1.976-26.621,53.913,53.913,0,0,0-6.346-13.561,33.761,33.761,0,0,0-3.994-5.239,36.875,36.875,0,0,0-4.029-4.042c-1.344-1.1-2.56-2.09-3.627-2.963-1.131-.79-2.159-1.4-2.97-1.917C243.068,139.96,242.159,139.405,242.159,139.405Z"/><path d="M355.988,393.586s1.072-.966,3-2.708q.724-.669,1.6-1.48.82-.863,1.776-1.875a62.554,62.554,0,0,0,4.165-4.73q1.1-1.366,2.3-2.863,1.1-1.563,2.292-3.251c1.638-2.221,3.064-4.784,4.677-7.433a106.834,106.834,0,0,0,8.018-18.413,102.131,102.131,0,0,0,4.029-19.633c.188-3.08.473-5.989.367-8.731q-.033-2.05-.064-3.953c-.107-1.265-.214-2.477-.312-3.634a55.433,55.433,0,0,0-.858-6.191c-.157-.9-.307-1.742-.448-2.515-.2-.762-.38-1.458-.542-2.086-.674-2.481-1.049-3.854-1.049-3.854s.085,1.417.238,3.973c.047.636.094,1.34.15,2.111v2.521c.008,1.805.068,3.847-.111,6.106q-.084,1.688-.175,3.532-.2,1.834-.4,3.811c-.2,2.633-.764,5.413-1.174,8.339a168.53,168.53,0,0,1-4.651,18.687,181.1,181.1,0,0,1-6.969,18c-1.344,2.654-2.467,5.272-3.8,7.574q-.942,1.76-1.827,3.4c-.64,1.058-1.255,2.077-1.843,3.048-1.127,1.982-2.3,3.678-3.316,5.187q-.756,1.14-1.4,2.119c-.47.625-.9,1.2-1.28,1.71Z"/><text class="cls-6" transform="translate(195.869 49.266)">Fun Fact.<tspan x="0" y="30">Did you know most</tspan><tspan x="0" y="60">Americans</tspan><tspan x="0" y="90">aren’t US citizens?</tspan></text><text class="cls-7" transform="translate(262.175 269.818) scale(0.48 1)">Didn’t want to, but I did.</text><text class="cls-8" transform="translate(71.428 431.97) scale(0.831 1)">Question is,<tspan x="0" y="40.022">what you gonna do about that.</tspan></text><path d="M793.734,218.038c-50.79,1-101.28-4-151.984-3.938-30.386.028-83.643-.884-95.427-62.014C522.871,30.43,614.734,6.558,661.8,6.969c27.966.244,55.96-3.809,83.91-2.475,31.519,1.5,71.956,1.622,98.746,31.527,15.66,17.482,28.818,47.032,31.458,78.53a125.741,125.741,0,0,1-2.59,38.948C860.682,207.84,823.976,217.442,793.734,218.038Z"/><path d="M737.81,446.948c-39.808.075-83.96,14.087-106.407-63.313-14.4-49.664,2.606-121.154,32.511-131.8,42.81-15.255,211.974-17.282,251.718-8.071,32.569,7.545,80.089,18.473,75.981,99.809-4.052,79.983-44.875,94.974-81.454,100.928C853.413,453.725,794.9,446.849,737.81,446.948Z"/><path d="M458.481,624.155c3.931-52.865,22.541-106.122,55.054-112.988,13.423-2.832,28.216-3.829,42.037-6.166,32.407-5.473,260.811-19.459,299.605,25.408,27.979,32.361,38.335,88.629,21.016,140.649-19.94,59.868-83.792,68.424-118.4,68.4-47.527-.042-95.057.1-142.586.108-15.594,27.99-42.106,74.53-54.548,90.219l.788-90.037c-34.955.2-85.372-3.02-100.067-56.058C457.209,668.643,456.829,646.444,458.481,624.155Z"/><path class="cls-5" d="M859.852,109.225a108.444,108.444,0,0,1-2.408,34.83c-11.745,48.593-45.851,57.178-73.957,57.714-47.189.892-94.106-3.574-141.221-3.524-28.233.029-77.721-.79-88.67-55.455C531.806,34,617.164,12.654,660.9,13.021c25.986.219,51.993-3.405,77.969-2.215C768.153,12.15,805.724,12.257,830.62,39,845.17,54.633,857.4,81.056,859.852,109.225Z"/><path class="cls-5" d="M975.79,336.085c-3.788,67.659-42,80.339-76.229,85.376-53.109,7.809-107.875,1.988-161.3,2.075-37.255.064-78.576,11.916-99.584-53.56-13.478-42.009,2.436-102.483,30.421-111.493,40.067-12.9,198.391-14.618,235.59-6.829C935.165,258.037,979.635,267.283,975.79,336.085Z"/><path class="cls-5" d="M467.663,616.12c-1.559,19.634-1.2,39.193,2.727,52.45,16.307,55.049,79.318,49.179,110.179,49.237,56.318.111,112.64-.154,168.954-.111,32.59.024,92.722-7.517,111.5-60.255,16.311-45.828,6.558-95.394-19.787-123.9-36.535-39.528-251.624-27.21-282.141-22.386-13.013,2.058-26.945,2.936-39.584,5.434C488.888,522.635,471.363,569.552,467.663,616.12Z"/><polygon class="cls-5" points="658.453 178.957 683.825 354.355 711.49 344.972 681.872 134.984 658.453 178.957"/><polygon class="cls-5" points="806.992 389.266 777.828 568.311 748.263 575.079 779.827 360.736 806.992 389.266"/><path class="cls-5" d="M626.7,698.371s-45.645,78.643-62.815,98.9l1.008-108.089Z"/><path d="M709.256,282.967s-.487-1.251-1.36-3.5c-.838-2.273-1.974-5.611-3.153-9.9a320.339,320.339,0,0,1-7.261-34.424c-2.126-13.717-3.458-26.432-3.28-35.713.06-2.308.032-4.451.255-6.255a46.123,46.123,0,0,1,.494-4.705c.433-2.57.671-4,.671-4s-.465,1.286-1.31,3.6a37.107,37.107,0,0,0-1.2,4.568,57.674,57.674,0,0,0-1.079,6.386c-1.314,9.66-1.019,23.511,1.225,37.928,2.347,14.388,6.11,26.531,9.6,34.413a65.4,65.4,0,0,0,4.505,8.794Z"/><path d="M820.145,394.9s-1.147,1.478-3.213,4.151c-.518.682-1.093,1.442-1.722,2.27l-1.86,3.023q-1.007,1.649-2.141,3.512c-.771,1.236-1.428,2.752-2.2,4.239-.749,1.521-1.537,3.119-2.357,4.78q-1.092,2.649-2.273,5.515-.591,1.439-1.193,2.926c-.383,1.012-.727,2.081-1.1,3.143q-1.092,3.226-2.244,6.628a262.52,262.52,0,0,0-7.285,31.422c-1.9,11.508-3.04,22.7-3.8,32.9-.643,10.225-.987,19.448-.98,27.195-.046,3.871,0,7.369.064,10.441.042,3.073.106,5.714.206,7.87.184,4.309.284,6.693.284,6.693s.142-2.379.4-6.672c.107-2.146.281-4.766.49-7.8s.419-6.489.735-10.29c.533-7.619,1.413-16.62,2.447-26.554,1.143-9.9,2.52-20.719,4.36-31.882,1.9-11.138,4.09-21.512,6.415-30.758q.959-3.393,1.871-6.614c.306-1.069.586-2.148.9-3.174q.5-1.509.991-2.967c.642-1.959,1.267-3.854,1.867-5.672q1.018-2.607,1.953-5c.646-1.572,1.175-3.186,1.822-4.524q.952-2.043,1.8-3.842l1.559-3.378c.536-.956,1.026-1.831,1.466-2.618Z"/><path d="M651.084,182.979s.6,1.081,1.687,3.031c.536.974,1.225,2.1,1.967,3.478.692,1.445,1.48,3.092,2.35,4.908.938,1.706,1.648,3.973,2.571,6.16a70.64,70.64,0,0,1,2.51,7.38,168.944,168.944,0,0,1,4.3,18.019,275.052,275.052,0,0,1,3.646,35.136c.185,4.64.341,8.436.376,11.062.089,2.638.135,4.1.135,4.1s.2-1.431.547-4.008c.373-2.585.76-6.357,1.122-11.079a154.4,154.4,0,0,0-1.644-37.24,104.98,104.98,0,0,0-5.279-18.97,52.692,52.692,0,0,0-3.324-7.328,48.532,48.532,0,0,0-3.351-5.655c-1.119-1.533-2.131-2.923-3.018-4.145-.941-1.1-1.8-1.953-2.471-2.681C651.841,183.754,651.084,182.979,651.084,182.979Z"/><path d="M745.791,538.543l2.5-3.789q.6-.936,1.327-2.069c.455-.8.949-1.682,1.478-2.624,1.057-1.883,2.275-4.034,3.465-6.617q.917-1.909,1.917-4,.916-2.185,1.907-4.547c1.363-3.107,2.549-6.692,3.891-10.4a212.952,212.952,0,0,0,6.671-25.758,230.636,230.636,0,0,0,3.352-27.464c.156-4.308.394-8.377.305-12.213q-.026-2.868-.053-5.53-.134-2.653-.259-5.083c-.124-3.233-.451-6.13-.714-8.66-.131-1.262-.255-2.437-.372-3.518-.164-1.067-.317-2.041-.451-2.918-.561-3.472-.874-5.393-.874-5.393l.2,5.559c.039.889.078,1.874.124,2.953V420c.007,2.524.057,5.38-.092,8.54-.046,1.574-.1,3.224-.146,4.941q-.165,2.567-.337,5.331c-.163,3.684-.635,7.573-.976,11.665-.92,8.156-2.177,17-3.87,26.141-1.758,9.094-3.771,17.573-5.8,25.178-1.119,3.713-2.053,7.375-3.164,10.6q-.783,2.463-1.52,4.755c-.532,1.48-1.043,2.906-1.533,4.264-.938,2.772-1.914,5.145-2.759,7.255q-.628,1.6-1.168,2.964c-.391.875-.746,1.676-1.065,2.394C746.5,536.929,745.791,538.543,745.791,538.543Z"/><text class="cls-9" transform="translate(602.787 122.095) scale(0.668 1)">You don’t say.</text><text class="cls-10" transform="translate(671.114 322.122) scale(0.614 1)">Well I’ll be.<tspan x="0" y="54.059">JAY YOU HERE DAT!</tspan></text><rect class="cls-11" x="445.357" y="817.786" width="169.907" height="114.339" rx="12" ry="12"/><line class="cls-12" x1="458.019" y1="977.338" x2="474.49" y2="932.125"/><line class="cls-1" x1="431.547" y1="974.417" x2="458.019" y2="977.338"/><line class="cls-12" x1="431.547" y1="974.417" x2="458.017" y2="977.338"/><line class="cls-12" x1="523.898" y1="977.338" x2="540.369" y2="932.125"/><line class="cls-1" x1="497.426" y1="974.417" x2="523.898" y2="977.338"/><line class="cls-12" x1="497.426" y1="974.417" x2="523.896" y2="977.338"/><rect class="cls-13" x="483.799" y="841.334" width="22.27" height="22.27" rx="11.135" ry="11.135"/><rect class="cls-13" x="542.112" y="841.334" width="22.27" height="22.27" rx="11.135" ry="11.135"/><path d="M483.8,897.566s52.673-24.367,69.448-7.5"/><line class="cls-4" x1="444.782" y1="874.955" x2="388.235" y2="830.087"/><line class="cls-4" x1="615.264" y1="874.955" x2="706.497" y2="841.334"/><circle class="cls-14" cx="132.007" cy="709.345" r="79.324"/><line class="cls-4" x1="80.891" y1="769.998" x2="63.93" y2="829.786"/><line class="cls-4" x1="32.065" y1="817.786" x2="63.93" y2="829.786"/><line class="cls-4" x1="132.13" y1="787.892" x2="115.169" y2="847.679"/><line class="cls-4" x1="83.304" y1="835.679" x2="115.169" y2="847.679"/><line class="cls-4" x1="52.683" y1="689.183" x2="22.666" y2="717.963"/><line class="cls-4" x1="208.252" y1="731.294" x2="150.153" y2="743.228"/><rect class="cls-15" x="83.358" y="678.048" width="22.27" height="22.27" rx="11.135" ry="11.135"/><rect class="cls-15" x="141.671" y="678.048" width="22.27" height="22.27" rx="11.135" ry="11.135"/><path class="cls-16" d="M152.806,755.111S91.54,768.833,83.358,743.228"/><text class="cls-17" transform="translate(502.751 630.021) scale(0.398 1)">What can I do?</text><rect class="cls-18" x="4.568" y="4.224" width="991.259" height="991.259"/></svg>